<?xml version="1.0" standalone="no"?>
<svg viewBox="0 0 200 200" xmlns="http://www.w3.org/2000/svg">
  <path fill="#074F49" d="M44.8,-66.8C58.1,-70,68.9,-58,71.3,-44.3C73.7,-30.7,67.7,-15.3,56.6,-6.4C45.4,2.4,29.1,4.9,20.3,7.6C11.6,10.3,10.5,13.2,8.4,14.1C6.2,15,3.1,13.9,-3.2,19.4C-9.5,25,-19,37.2,-23.7,37.8C-28.4,38.3,-28.2,27.2,-30.5,19C-32.8,10.8,-37.6,5.4,-44.4,-4C-51.3,-13.3,-60.2,-26.6,-57.9,-34.9C-55.6,-43.2,-42.2,-46.5,-30.7,-44.3C-19.2,-42.1,-9.6,-34.4,3.1,-39.8C15.8,-45.2,31.6,-63.6,44.8,-66.8Z" transform="translate(100 100)" />
</svg>
